<?xml version="1.0" encoding="iso-8859-1" ?>
<!-- Generator: Adobe Illustrator 19.1.1, SVG Export Plug-In . SVG Version: 6.00 Build 0)  -->
<svg xmlns="http://www.w3.org/2000/svg" xmlns:xlink="http://www.w3.org/1999/xlink" version="1.1" id="Layer_1" x="0px" y="0px" viewBox="0 0 50 50" enable-background="new 0 0 50 50" xml:space="preserve" width="100px" height="100px">
<circle cx="30.5" cy="28.5" r="1.5" />

<circle cx="19.5" cy="28.5" r="1.5" />

<g>
<g>
<path fill="none" stroke="#000000" stroke-width="2" stroke-linecap="round" stroke-linejoin="round" stroke-miterlimit="10" d="    M38.269,25.739C38.964,23.61,40,19.885,40,16c0-3.183-1.419-9-7-9c-0.94-1.724-3.466-4-8.277-4C15.02,3,10,8.637,10,17.596    c0,1.681,1.01,6.231,1.673,8.143c-0.568,0.353-1.907,1.473-1.673,3.464c0.437,3.708,3.276,4.726,3.276,4.726    c0.296,2.831,3.674,9.108,8.401,11.295C22.395,46.295,23.614,47,25,47c1.387,0,2.607-0.706,3.325-1.778    c4.709-2.19,8.044-8.463,8.341-11.293c0,0,2.862-0.982,3.3-4.69C40.2,27.249,38.838,26.092,38.269,25.739z" />

	</g>
</g>
<g>	
<g>
<path d="M12,27c-0.227,0-0.447-0.077-0.624-0.219l-0.327-0.261c-0.147-0.118-0.259-0.275-0.321-0.454    C10.062,24.145,9,19.488,9,17.596C9,7.685,14.731,2,24.723,2c5.426,0,7.92,2.646,8.847,4.019C38.67,6.365,41,11.354,41,16    c0,3.05-0.6,6.431-1.781,10.049c-0.134,0.412-0.518,0.69-0.95,0.69c-2.54,0-3.25-2.973-3.269-4.729    c0-3.135-1.534-6.08-2.506-7.629C31.26,15.845,28.652,18,24,18c-4.939,0-8.374,0.878-9,4C14.656,23.716,13.972,27,12,27z" />

	</g>
</g>
</svg>
