<?xml version="1.0" encoding="iso-8859-1"?>
<!-- Generator: Adobe Illustrator 19.1.1, SVG Export Plug-In . SVG Version: 6.00 Build 0)  -->
<svg xmlns="http://www.w3.org/2000/svg" xmlns:xlink="http://www.w3.org/1999/xlink" version="1.1" id="Layer_1" x="0px" y="0px" viewBox="0 0 50 50" enable-background="new 0 0 50 50" xml:space="preserve" width="100px" height="100px">
<circle cx="30.5" cy="29.5" r="1.5"/>
<circle cx="19.5" cy="29.5" r="1.5"/>
<path d="M46.285,38.533c-3.727-4.789-3.217-8.872-2.677-13.195C43.801,23.795,44,22.2,44,20.568c0-6.535-2.925-14.147-11.128-14.4  C29.398,2.732,26.008,2,23.749,2C12.801,2,6,8.809,6,19.77c0,1.561,0.211,3.116,0.435,4.763c0.604,4.442,1.227,9.036-2.443,14.021  c-0.162,0.22-0.227,0.496-0.18,0.766s0.202,0.507,0.43,0.659c0.167,0.111,4.154,2.714,13.25,3.72C19.795,46.477,22.45,48,25,48  c2.563,0,5.225-1.528,7.531-4.314c9.094-1.017,13.314-3.578,13.491-3.688c0.241-0.149,0.408-0.394,0.458-0.673  S46.46,38.757,46.285,38.533z M25,46c-2.026,0-4.23-1.375-6.208-3.872c-0.008-0.01-0.021-0.015-0.03-0.025  c-0.005-0.005-0.007-0.013-0.013-0.018C18.702,42.041,14,37.572,14,31c0-5.004,4.304-6.04,8.101-6.954  c0.785-0.189,1.525-0.367,2.195-0.575c4.49-1.392,6.639-4.359,7.562-6.14C33.343,18.909,36,22.53,36,28.28  c0,7.673-4.749,13.791-4.797,13.853c-0.008,0.01-0.009,0.023-0.017,0.033C29.217,44.637,27.023,46,25,46z"/>
</svg>
